<?xml version="1.0" encoding="UTF-8"?>
<svg xmlns="http://www.w3.org/2000/svg" version="1.1" viewBox="0 0 640 512">
  <defs>
    <style>
      .cls-1 {
        fill: #fff;
        opacity: .8;
      }
    </style>
  </defs>
  <!-- Generator: Adobe Illustrator 28.6.0, SVG Export Plug-In . SVG Version: 1.2.0 Build 709)  -->
  <g>
    <g id="Layer_1">
      <path class="cls-1" d="M208,96c26.5,0,48-21.5,48-48S234.5,0,208,0s-48,21.5-48,48,21.5,48,48,48ZM123.7,200.5c1-.4,1.9-.8,2.9-1.2l-16.9,63.5c-5.6,21.1,0,43.6,14.7,59.7l70.7,77.1,22,88.1c4.3,17.1,21.7,27.6,38.8,23.3s27.6-21.7,23.3-38.8l-23-92.1c-1.9-7.8-5.8-14.9-11.2-20.8l-49.5-54,19.3-65.5,9.6,23c4.4,10.6,12.5,19.3,22.8,24.5l26.7,13.3c15.8,7.9,35,1.5,42.9-14.3s1.5-35-14.3-42.9l-21.5-10.7-15.3-36.8c-17.2-41.1-57.4-67.9-102-67.9s-45.3,4.8-66.1,14l-8,3.5c-32.9,14.6-58.1,42.4-69.4,76.5l-2.6,7.8c-5.6,16.8,3.5,34.9,20.2,40.5,16.7,5.6,34.9-3.5,40.5-20.2l2.6-7.8c5.7-17.1,18.3-30.9,34.7-38.2l8-3.5h.1ZM93.7,335.6l-25,62.4-59.3,59.4c-12.5,12.5-12.5,32.8,0,45.3,12.5,12.5,32.8,12.5,45.3,0l61.6-61.7c4.6-4.6,8.2-10.1,10.6-16.1l14.5-36.2-40.7-44.4c-2.5-2.7-4.8-5.6-7-8.6h0ZM550.6,153.4c-12.5-12.5-32.8-12.5-45.3,0s-12.5,32.8,0,45.3l25.4,25.3h-146.7c-17.7,0-32,14.3-32,32s14.3,32,32,32h146.7l-25.4,25.4c-12.5,12.5-12.5,32.8,0,45.3,12.5,12.5,32.8,12.5,45.3,0l80-80c12.5-12.5,12.5-32.8,0-45.3l-80-80h0ZM392,0c-13.3,0-24,10.7-24,24v48c0,13.3,10.7,24,24,24s24-10.7,24-24V24c0-13.3-10.7-24-24-24ZM416,152c0-13.3-10.7-24-24-24s-24,10.7-24,24v16c0,13.3,10.7,24,24,24s24-10.7,24-24v-16ZM392,320c-13.3,0-24,10.7-24,24v16c0,13.3,10.7,24,24,24s24-10.7,24-24v-16c0-13.3-10.7-24-24-24ZM416,440c0-13.3-10.7-24-24-24s-24,10.7-24,24v48c0,13.3,10.7,24,24,24s24-10.7,24-24v-48Z"/>
    </g>
  </g>
</svg>