<svg xmlns="http://www.w3.org/2000/svg" xml:space="preserve" viewBox="0 0 427.3 427.2">
  <path fill="#fff" d="M141.6 416.7c-7.8 0-15.2-3-20.6-8.5L19.1 306.3c-5.5-5.5-8.6-13-8.6-20.6V141.5c0-7.8 3-15.1 8.6-20.6L121 19.1c5.5-5.5 13-8.6 20.6-8.6h144.1c7.8 0 15.2 3 20.6 8.5l102 101.9c5.4 5.4 8.5 12.9 8.5 20.6v144.2c0 7.8-3 15.2-8.5 20.6L306.4 408.2c-5.5 5.4-13 8.5-20.6 8.5H141.6z"/>
  <path fill="#fff" stroke="#fff" stroke-miterlimit="10" stroke-width="15" d="M285.7 13.5c7 0 13.6 2.7 18.5 7.6l102 101.9c4.9 4.9 7.6 11.6 7.6 18.5v144.2c0 7-2.7 13.6-7.6 18.5L304.3 406.1c-4.9 4.8-11.6 7.6-18.5 7.6H141.6c-7 0-13.6-2.7-18.5-7.6L21.2 304.2c-4.9-4.9-7.7-11.6-7.7-18.5V141.5c0-7 2.8-13.6 7.7-18.5L123.1 21.2c4.9-4.9 11.6-7.7 18.5-7.7h144.1m0-6H141.6c-8.4 0-16.7 3.4-22.7 9.5L17 118.8c-6.1 6.1-9.5 14.1-9.5 22.7v144.2c0 8.4 3.4 16.7 9.5 22.7l101.9 101.9c6 6 14.1 9.4 22.7 9.4h144.2c8.4 0 16.7-3.4 22.7-9.3l101.9-101.9c6-6 9.4-14.1 9.4-22.7V141.5c0-8.5-3.4-16.8-9.4-22.7l-102-101.9c-6-6.1-14.1-9.4-22.7-9.4z"/>
  <path fill="#d2451e" d="m406.2 123-102-101.9c-4.9-4.9-11.5-7.6-18.5-7.6H141.6c-6.9 0-13.6 2.8-18.5 7.7L21.2 123c-4.9 4.9-7.7 11.5-7.7 18.5v144.2c0 6.9 2.8 13.6 7.7 18.5l101.9 101.9c4.9 4.9 11.5 7.6 18.5 7.6h12.2v-172c0-6.6 5.4-12 12-12h96c6.6 0 12 5.4 12 12v172h12c6.9 0 13.6-2.8 18.5-7.6l101.9-101.9c4.9-4.9 7.6-11.5 7.6-18.5V141.5c0-6.9-2.7-13.6-7.6-18.5zm-192.4 80.7c-33.1 0-60-26.9-60-60s26.9-60 60-60 60 26.9 60 60-26.9 60-60 60z"/>
</svg>
