<svg xmlns="http://www.w3.org/2000/svg" version="1.2" baseProfile="tiny" width="400" height="400">
    <path fill="#fff" d="M129.33 37.33h141.33V400H129.33z" />
    <path fill="#F15A29" d="M392.35 109.33L290.41 7.39c-4.89-4.89-11.54-7.64-18.46-7.64H127.79c-6.92 0-13.56 2.75-18.46 7.65L7.4 109.33c-4.9 4.89-7.65 11.54-7.65 18.46v144.17c0 6.92 2.75 13.56 7.65 18.46l101.94 101.94c4.89 4.89 11.53 7.65 18.46 7.65H140V228c0-6.63 5.37-12 12-12h96c6.63 0 12 5.37 12 12v172h11.96c6.92 0 13.56-2.75 18.46-7.65l101.94-101.94c4.89-4.89 7.65-11.54 7.65-18.46V127.78c-.01-6.91-2.76-13.55-7.66-18.45zM200 190c-33.14 0-60-26.86-60-60s26.86-60 60-60 60 26.86 60 60-26.86 60-60 60z" />
</svg>