<?xml version="1.0" encoding="UTF-8"?><svg id="Layer_1" xmlns="http://www.w3.org/2000/svg" xmlns:xlink="http://www.w3.org/1999/xlink" viewBox="0 0 360 187.04"><defs><style>.cls-1{fill:none;}.cls-1,.cls-2{stroke-width:0px;}.cls-3{clip-path:url(#clippath);}.cls-2{fill:#fff;}</style><clipPath id="clippath"><rect class="cls-1" width="360" height="187.04"/></clipPath></defs><polygon class="cls-2" points="153.09 0 147.85 29.49 181.18 29.49 164.78 122.16 199.16 122.16 215.56 29.49 249.42 29.49 254.65 0 153.09 0 153.09 0"/><g class="cls-3"><path class="cls-2" d="M290.72,122.16h-48.34L263.84,0h35.08C338.88,0,360,15.18,360,47.99c0,43.63-20.94,74.17-69.28,74.17M324.57,51.13c0-14.49-6.98-22.16-27.4-22.16h-4.19l-11.17,64.22h11.52c20.42,0,31.24-14.83,31.24-42.06"/><path class="cls-2" d="M239.31,136.95l-.05.13c62.42,20.39,122.54,13.19,116.82-31.75-14.3,45.45-117.91,31.35-116.77,31.63"/><path class="cls-2" d="M352.33,141.74c-41.96,28.29-90.13,7.85-128.37-1.8-37.99-10.3-87.65-20.12-150.72,36.8,50.41-27.8,96.84-5.72,140.04,5.56,38.24,9.65,94.85,8.34,139.05-40.56"/></g><path class="cls-2" d="M101.74,60.56l-41.14,61.53-18.54-62.42v.02c-1.23,9.42-2.97,21.29-5.07,33.33l-5.24,29.14H0L21.64,0h30.61l19,61.45L112.21,0h31.24l-21.64,122.16h-31.76l5.24-29.14c2.09-12.04,4.19-23.04,6.46-32.46"/></svg>