<svg xmlns="http://www.w3.org/2000/svg" viewBox="0 0 360 187.04">
  <path d="m153.09 0-5.24 29.49h33.33l-16.4 92.67h34.38l16.4-92.67h33.86L254.65 0H153.09zM290.72 122.16h-48.34L263.84 0h35.08C338.88 0 360 15.18 360 47.99c0 43.63-20.94 74.17-69.28 74.17m33.85-71.03c0-14.49-6.98-22.16-27.4-22.16h-4.19l-11.17 64.22h11.52c20.42 0 31.24-14.83 31.24-42.06"/>
  <path d="m239.31 136.95-.05.13c62.42 20.39 122.54 13.19 116.82-31.75-14.3 45.45-117.91 31.35-116.77 31.63"/>
  <path d="M352.33 141.74c-41.96 28.29-90.13 7.85-128.37-1.8-37.99-10.3-87.65-20.12-150.72 36.8 50.41-27.8 96.84-5.72 140.04 5.56 38.24 9.65 94.85 8.34 139.05-40.56M101.74 60.56 60.6 122.09 42.06 59.67v.02c-1.23 9.42-2.97 21.29-5.07 33.33l-5.24 29.14H0L21.64 0h30.61l19 61.45L112.21 0h31.24l-21.64 122.16H90.05l5.24-29.14c2.09-12.04 4.19-23.04 6.46-32.46"/>
</svg>
