<?xml version="1.0" encoding="UTF-8"?><svg xmlns="http://www.w3.org/2000/svg" viewBox="0 0 500 500"><defs><style>.c{fill:#fff;}.d{fill:red;}.e{fill:none;stroke:#fff;stroke-miterlimit:10;stroke-width:13px;}</style></defs><g id="a"><circle cx="250" cy="250" r="250"/><polygon class="d" points="250 98.003 184 212.319 316 212.319 250 98.003"/><path class="c" d="M314.828,382.932h-28.583l-58.766-87.349c-3.888-5.946-9.147-13.949-11.205-18.065,0,5.945.457,26.067.457,34.985v70.429h-31.556v-160.065h30.641l56.709,84.605c3.886,5.946,9.147,13.949,11.203,18.065,0-5.945-.457-26.067-.457-34.985v-67.685h31.555v160.065Z"/></g><g id="b"><line class="e" x1="250" y1="26" x2="250" y2="53.776"/><line class="e" x1="173.387" y1="39.509" x2="182.887" y2="65.61"/><line class="e" x1="106.016" y1="78.406" x2="123.87" y2="99.684"/><line class="e" x1="56.01" y1="138" x2="80.065" y2="151.888"/><line class="e" x1="29.403" y1="211.103" x2="56.757" y2="215.926"/><line class="e" x1="29.403" y1="288.897" x2="56.757" y2="284.074"/><line class="e" x1="56.01" y1="362" x2="80.065" y2="348.112"/><line class="e" x1="106.016" y1="421.594" x2="123.87" y2="400.316"/><line class="e" x1="173.387" y1="460.491" x2="182.887" y2="434.39"/><line class="e" x1="250" y1="474" x2="250" y2="446.224"/><line class="e" x1="326.613" y1="460.491" x2="317.113" y2="434.39"/><line class="e" x1="393.984" y1="421.594" x2="376.13" y2="400.316"/><line class="e" x1="443.99" y1="362" x2="419.935" y2="348.112"/><line class="e" x1="470.597" y1="288.897" x2="443.243" y2="284.074"/><line class="e" x1="470.597" y1="211.103" x2="443.243" y2="215.926"/><line class="e" x1="443.99" y1="138" x2="419.935" y2="151.888"/><line class="e" x1="393.984" y1="78.406" x2="376.13" y2="99.684"/><line class="e" x1="326.613" y1="39.509" x2="317.113" y2="65.61"/></g></svg>