<?xml version="1.0" encoding="utf-8"?>
<!-- Generator: Adobe Illustrator 25.3.1, SVG Export Plug-In . SVG Version: 6.00 Build 0)  -->
<svg version="1.1" id="Layer_1" xmlns="http://www.w3.org/2000/svg" xmlns:xlink="http://www.w3.org/1999/xlink" x="0px" y="0px"
	 viewBox="0 0 792 332.36" style="enable-background:new 0 0 792 332.36;" xml:space="preserve">
<style type="text/css">
	.st0{fill:#1BA19F;}
</style>
<g>
	<path d="M236.6,235.25h-33.17L144.11,97.01h29.66l47,113.61l47.75-113.61h27.65L236.6,235.25z"/>
	<path d="M443.95,224.44c-11.06,8.3-27.4,13.32-49.27,13.32c-25.38,0-45.49-7.54-59.57-25.39c-9.3-11.81-13.83-26.64-13.83-47
		c0-19.35,5.03-34.18,14.07-46c12.32-15.58,32.17-25.63,58.56-25.63c28.4,0,47.5,10.05,58.81,25.38
		c10.56,13.32,14.58,35.94,12.32,56.8H347.93c0.5,11.06,4.53,19.6,11.81,26.9c7.79,7.54,20.36,12.06,35.19,12.06
		c14.07,0,25.13-3.02,31.92-7.29c8.3-5.28,11.06-12.32,11.06-15.58h26.39C464.3,201.32,456.76,214.64,443.95,224.44z M429.11,129.18
		c-7.29-7.29-18.35-12.06-35.19-12.06c-16.09,0-26.89,5.03-34.43,12.06c-7.04,6.28-10.56,15.08-11.31,25.89h89.98
		C438.16,144.51,435.65,135.72,429.11,129.18z"/>
	<path class="st0" d="M630.43,114.1c-11.16-11.62-27.27-19.14-50.11-20.21l11.81,11.81l-12.12,12.12
		c14.77,0.96,25.1,5.65,31.81,12.37c7.79,8.3,10.06,21.36,10.06,35.69c0,15.33-3.77,27.14-10.81,34.94
		c-7.79,9.05-20.61,13.82-36.44,13.82c-16.84,0-28.9-4.52-37.45-13.82c-6.54-7.29-10.06-19.1-10.06-34.94
		c0-12.82,2.01-24.63,10.56-33.93c6.03-6.59,13.89-11.34,24.74-13.31l12.93-12.93l-11.44-11.44c-20.6,2-35.2,9.81-45.33,20.59
		c-12.57,13.07-18.6,30.66-18.6,50.77c0,23.38,7.04,39.71,18.35,51.78c12.82,13.32,31.67,20.36,56.05,20.36
		c24.63,0,42.98-7.79,55.29-20.86c11.81-12.32,18.85-29.16,18.85-51.27C648.52,145.02,642.99,126.92,630.43,114.1z"/>
</g>
</svg>
